<?xml version="1.0" encoding="UTF-8" standalone="no"?>
<!DOCTYPE svg PUBLIC "-//W3C//DTD SVG 1.1//EN" "http://www.w3.org/Graphics/SVG/1.1/DTD/svg11.dtd">
<svg width="100%" height="100%" viewBox="0 0 100 42" version="1.1" xmlns="http://www.w3.org/2000/svg" xmlns:xlink="http://www.w3.org/1999/xlink" xml:space="preserve" xmlns:serif="http://www.serif.com/" style="fill-rule:evenodd;clip-rule:evenodd;stroke-linejoin:round;stroke-miterlimit:2;">
    <g transform="matrix(0.0961577,0,0,0.0961577,40.7025,18.9086)">
        <g transform="matrix(1,0,0,1,-684.171,-411.22)">
            <path d="M464.3,218.5C466.786,218.386 473.286,218.208 475.095,219.574C494.89,234.517 520.373,257.898 538.632,274.228C538.722,267.858 537.575,252.344 541.276,247.006C542.983,244.543 549.656,243.336 552.809,243.157C583.235,241.43 579.227,248.475 579.249,272.948L579.289,311.985C594.173,324.41 633.82,356.967 642.926,371.108C644.626,390.047 636.243,393.722 619.314,393.369C615.62,391.329 614.682,390.623 611.455,387.881C612.046,397.152 611.697,410.06 611.699,419.604L611.733,474.666L611.743,517.635C611.732,552.975 612.795,552.565 583.372,575.73C583.492,586.437 586.471,607.231 570.953,606.713C563.687,606.471 562.051,606.174 556.835,601.033C554.104,592.107 554.121,584.898 553.549,575.588C549.377,575.824 544.513,575.656 540.282,575.613C540.064,584.679 539.524,593.981 533.401,601.274C527.714,608.048 517.726,610.108 510.953,603.443C503.644,596.25 504.377,585.058 504.377,575.604C481.444,576.233 453.467,576.052 430.489,575.514C425.236,641.358 345.626,668.18 296.792,629.917C236.273,582.498 265.06,485.334 341.675,476.799C379.013,475.92 410.908,491.469 426.307,526.597C476.351,528.021 529.273,526.078 579.613,526.774C578.784,509.545 579.313,488.27 579.312,470.826L579.409,365.264C568.442,354.642 553.219,341.927 541.6,331.382L469.415,265.319C464.097,269.732 458.316,275.059 453.283,279.835C422.296,309.241 389.203,337.171 358.383,366.662L358.361,454.911C347.09,454.877 335.095,454.63 323.888,455.142L323.937,410.42C323.93,404.675 323.451,397.111 323.758,391.802C318.913,390.677 316.357,398.133 301.149,392.774C296.005,387.807 291.464,378.961 295.592,373.025C304.193,360.658 322.201,345.947 332.96,336.049L385.905,287.376C397.524,276.735 453.686,223.037 464.3,218.5ZM332.668,587.33C346.532,584.522 355.512,571.025 352.749,557.149C349.986,543.273 336.521,534.247 322.64,536.967C308.696,539.699 299.623,553.241 302.399,567.18C305.174,581.118 318.742,590.15 332.668,587.33Z" style="fill:#fdfdfd;fill-rule:nonzero;"/>
        </g>
        <g transform="matrix(1,0,0,1,-684.171,-411.22)">
            <path d="M676.471,259.766C701.085,260.107 726.651,257.34 750.651,262.913C777.588,269.168 782.298,313.478 759.45,323.815C781.355,332.495 785.608,355.698 774.995,375.22C759.253,395.773 743.601,393.679 720.076,393.609C705.56,393.566 690.833,393.506 676.311,393.448C676.306,350.253 675.288,302.669 676.471,259.766ZM746.767,366.826C751.819,361.405 751.987,360.22 753.785,353.091C748.231,329.788 724.135,335.929 705.144,335.599L705.026,371.801C716.928,371.811 737.603,373.883 746.767,366.826ZM705.132,313.28C717.496,313.184 731.738,315.109 741.992,309.379C746.533,302.334 749.018,291.996 740.118,287.123C730.271,281.731 716.207,283.506 705.057,283.17L705.132,313.28Z" style="fill:#fdfdfd;fill-rule:nonzero;"/>
        </g>
        <g transform="matrix(1,0,0,1,-684.171,-411.22)">
            <path d="M833.798,453.444C845.591,453.068 857.128,457.041 864.39,466.584L864.336,454.632L889.611,454.586L889.47,517.371C889.478,529.466 890.167,541.448 888.756,553.549C884.505,590.019 842.311,601.244 813.535,585.683C807.227,582.271 796.984,572.383 795.145,565.34L796.388,564.037C802.776,562.068 809.848,559.332 816.2,557.019C825.517,570.534 843.292,575.331 857.27,564.858C865.153,558.95 864.082,547.223 864.727,538.37C858.505,545.051 850.351,550.931 841.333,552.129C797.053,558.013 779.52,501.933 802.25,470.624C810.915,458.687 820.422,455.531 833.798,453.444ZM847.447,529.427C853.881,527.326 858.663,524.602 861.596,518.222C867.617,505.127 865.453,484.839 851.251,477.844C846.844,475.674 843.418,476.011 838.763,475.893C815.845,481.845 812.078,513.649 830.839,526.529C835.449,529.694 841.962,529.67 847.447,529.427Z" style="fill:#fdfdfd;fill-rule:nonzero;"/>
        </g>
        <g transform="matrix(1,0,0,1,-684.171,-411.22)">
            <path d="M722.931,418.219C729.696,418.258 736.36,418.354 743.121,418.022C759.671,462.047 779.468,508.262 794.91,552.343L762.094,552.579C759.507,543.987 754.069,528.294 750.604,520.195C747.272,520.347 743.785,520.373 740.437,520.446C728.698,520.445 716.902,520.522 705.171,520.205C702.518,528.562 696.273,544.764 694.98,552.474L664.405,552.378C666.034,545.886 673.55,527.332 676.156,520.424L701.422,454.767C705.629,443.787 711.534,429.239 714.783,418.347L722.931,418.219ZM712.936,498.527C719.026,498.585 725.369,498.737 731.437,498.674L743.702,498.611C742.307,494.483 729.118,455.701 727.948,454.472C723.306,469.704 718.015,483.557 712.936,498.527Z" style="fill:#fdfdfd;fill-rule:nonzero;"/>
        </g>
        <g transform="matrix(1,0,0,1,-684.171,-411.22)">
            <path d="M1034.17,295.237C1056.75,292.908 1077.35,302.703 1084.61,325.17C1087.61,334.446 1087.06,342.482 1087,352.098C1064.93,352.585 1037.31,352.343 1015.14,351.864C1019.69,368.831 1029.01,381.022 1049.3,373.625C1053.64,372.043 1055.33,369.49 1058.34,365.928C1061.4,365.292 1069.19,366.424 1072.43,366.997L1073,367.103C1076.57,367.516 1080.04,367.982 1083.6,368.486C1076.84,385.529 1066.07,393.92 1046.67,396.432C995.923,402.999 973.058,345.242 1003.05,309.021C1010.68,299.804 1021.58,295.746 1034.17,295.237ZM1016.17,333.412L1039.26,333.439L1060.69,333.443C1058.17,321.618 1050.74,312.77 1037.66,313.947C1023.63,316.091 1020.41,320.411 1016.17,333.412Z" style="fill:#fdfdfd;fill-rule:nonzero;"/>
        </g>
        <g transform="matrix(1,0,0,1,-684.171,-411.22)">
            <path d="M943.943,453.49L947.294,453.431C970.492,453.163 988.893,465.407 994.265,488.823C995.907,495.984 995.699,502.233 995.67,509.507C984.537,510.397 970.571,510.035 959.25,510.011C949.43,509.99 935.771,510.389 926.216,509.609C929.804,527.375 942.568,542.211 962.961,531.339C965.967,529.736 967.638,526.741 969.278,523.77C973.759,524.485 977.8,524.994 982.313,525.475C985.071,525.591 986.598,525.525 989.257,526.459C992.008,529.277 991.75,531.335 989.556,534.664C976.279,554.55 953.382,560.785 931.141,553.218C899.442,542.433 891.322,499.625 909.033,473.721C917.948,460.684 929.068,456.23 943.943,453.49ZM927.725,492.195L955.189,492.185C960.17,492.154 965.207,492.076 970.181,492.195C966.038,475.632 960.76,473.561 944.447,473.572C934.243,476.44 930.022,481.821 927.725,492.195Z" style="fill:#fdfdfd;fill-rule:nonzero;"/>
        </g>
        <g transform="matrix(1,0,0,1,-684.171,-411.22)">
            <path d="M854.438,296.788C863.478,296.588 871.777,296.517 880.81,296.733L880.574,337.77L880.575,393.389C872.054,393.54 863.181,393.406 854.63,393.399L854.652,379.926C842.519,404.633 795.842,398.969 791.476,370.683C787.881,347.399 789.082,320.458 789.542,296.674C797.967,296.974 807.503,296.616 816.257,296.8C816.183,310.035 813.551,355.897 819.797,365.13C822.948,369.788 829.364,370.444 834.465,371.51C839.354,369.892 845.551,368.537 849.066,364.471C857.602,354.597 854.986,311.183 854.438,296.788Z" style="fill:#fdfdfd;fill-rule:nonzero;"/>
        </g>
        <g transform="matrix(1,0,0,1,-684.171,-411.22)">
            <path d="M963.439,296.823C972.343,296.513 980.724,296.499 989.617,296.55L958.915,382.499C954.363,395.199 948.536,414.698 938.918,423.825C927.411,434.744 914.386,433.591 899.957,433.181C899.711,425.162 899.884,417.811 899.486,409.614C915.318,409.916 921.326,411.108 929.907,396.418C926.492,385.473 920.111,370.414 915.788,359.434L891.305,296.76L910.178,296.685L918.971,296.811C926.524,315.803 935.186,345.461 942.243,365.908C942.774,363.198 943.585,360.51 944.393,357.872C950.627,337.515 956.535,316.961 963.439,296.823Z" style="fill:#fdfdfd;fill-rule:nonzero;"/>
        </g>
        <g transform="matrix(1,0,0,1,-684.171,-411.22)">
            <path d="M1249.55,523.303C1250.57,519.06 1255.93,502.92 1257.48,498.205C1261.36,486.36 1266.56,466.293 1271.38,455.482C1275.02,453.875 1292.36,454.738 1297.53,454.854C1288.07,480.373 1279.9,506.3 1270.53,531.708C1258.06,565.355 1253.73,597.144 1208.62,591.255C1208.24,583.971 1208.35,575.268 1208.18,567.817C1222.46,570.121 1232.44,571.094 1239.53,556.292L1210.53,483.219C1208.76,478.728 1200.46,458.664 1200.05,454.997C1208.71,454.475 1219.27,454.783 1228.06,454.87C1233.5,475.799 1243.08,501.612 1249.55,523.303Z" style="fill:#fdfdfd;fill-rule:nonzero;"/>
        </g>
        <g transform="matrix(1,0,0,1,-684.171,-411.22)">
            <path d="M1056.9,453.479C1095.51,452.857 1096.81,478.944 1096.42,509.947C1096.24,524.018 1096.88,538.23 1096.17,552.385C1087.77,552.499 1079.18,552.42 1070.77,552.434C1070.63,537.363 1074,494.831 1067.45,482.924C1065.42,479.233 1062.21,476.127 1058.04,475.062C1051.88,473.489 1045.36,476.564 1040.28,479.769C1038.2,482.602 1035.32,486.658 1034.82,490.137C1032.12,509.201 1033.55,532.889 1033.02,552.442L1007.7,552.419C1006.93,520.76 1007.65,486.548 1007.54,454.683L1033.36,454.778C1033.2,458.546 1033.39,461.877 1033.56,465.644C1040.66,457.854 1047,455.65 1056.9,453.479Z" style="fill:#fdfdfd;fill-rule:nonzero;"/>
        </g>
        <g transform="matrix(1,0,0,1,-684.171,-411.22)">
            <path d="M1196.17,295.74C1201.04,294.517 1212.93,294.821 1217.92,295.949C1232.41,299.221 1242.16,307.091 1246.84,321.065C1227.28,326.791 1227.73,330.276 1216.87,315.706C1212.51,309.853 1183.17,313.063 1189.14,324.64C1197.04,335.5 1223.42,332.241 1233.41,339.62C1262.19,360.884 1245.39,386.795 1215.67,395.348C1191.09,400.173 1173.3,391.358 1161.18,370.292C1168.51,367.867 1176.16,365.685 1183.58,363.475C1188.87,372.053 1194.44,375.595 1205.05,376.164C1209.26,375.55 1216.7,374.718 1219.55,371.3C1232.48,355.774 1199.24,354.02 1190.55,351.341C1179.85,348.044 1168.13,341.905 1166.19,329.644C1163.01,309.502 1178.15,298.785 1196.17,295.74Z" style="fill:#fdfdfd;fill-rule:nonzero;"/>
        </g>
        <g transform="matrix(1,0,0,1,-684.171,-411.22)">
            <path d="M1150.67,453.47C1167.6,452.925 1183.14,457.891 1193.39,472.058C1195.07,474.377 1198.16,478.206 1197.74,481.186C1194.21,483.796 1179.94,486.922 1174.73,488.225C1169.93,480.475 1162.4,472.289 1152.23,475.197C1124.28,483.189 1129.59,540.531 1163.93,531.329C1169.58,529.813 1172.32,525.473 1174.69,520.703C1179.68,521.394 1182.62,521.897 1187.47,523.181C1190.1,523.185 1196.89,524.115 1199.1,525.526C1195.98,539.274 1182.41,550.825 1169.04,554.338C1119.5,567.355 1092.55,515.341 1115.31,475.121C1123.49,460.668 1135.5,457.008 1150.67,453.47Z" style="fill:#fdfdfd;fill-rule:nonzero;"/>
        </g>
        <g transform="matrix(1,0,0,1,-684.171,-411.22)">
            <path d="M1154.36,295.199L1156.41,295.54C1158.75,298.368 1157.97,313.641 1158,318.417C1126.4,318.108 1125.5,335.69 1126.35,361.946C1126.68,372.078 1126.44,383.226 1126.35,393.439L1100.61,393.448L1100.63,377.53L1100.59,296.606C1107.26,296.951 1116.12,296.554 1122.95,296.427C1122.91,301.932 1123.17,306.99 1122.96,312.604C1130.95,299.671 1139.26,295.314 1154.36,295.199Z" style="fill:#fdfdfd;fill-rule:nonzero;"/>
        </g>
        <g transform="matrix(1,0,0,1,-684.171,-411.22)">
            <path d="M474.874,362.774C487.587,363.391 506.737,361.742 518.684,363.225C518.706,373.56 519.021,389.996 518.503,400.61C517.985,401.363 517.546,401.999 517.188,402.519L475.193,402.417C475.371,389.222 475.077,375.972 474.874,362.774Z" style="fill:#fdfdfd;fill-rule:nonzero;"/>
        </g>
        <g transform="matrix(1,0,0,1,-684.171,-411.22)">
            <path d="M423.806,362.61C435.891,363.144 450.089,362.846 462.336,362.841L462.315,402.519L454.715,402.429C443.185,402.623 431.214,402.48 419.649,402.497C419.584,396.885 418.68,365.742 420.368,363.258L423.806,362.61Z" style="fill:#fdfdfd;fill-rule:nonzero;"/>
        </g>
        <g transform="matrix(1,0,0,1,-684.171,-411.22)">
            <path d="M475.227,418.174C487.65,418.963 505.999,418.354 518.711,418.189L518.643,454.851C504.594,454.833 489.082,454.525 475.16,455.113C475.346,442.659 474.848,430.97 475.227,418.174Z" style="fill:#fdfdfd;fill-rule:nonzero;"/>
        </g>
        <g transform="matrix(1,0,0,1,-684.171,-411.22)">
            <path d="M419.599,418.341C433.852,418.262 448.152,418.21 462.402,418.383C462.414,427.475 462.899,446.824 462.028,454.874C449.661,454.805 431.438,454.267 419.615,455.252L419.599,418.341Z" style="fill:#fdfdfd;fill-rule:nonzero;"/>
        </g>
    </g>
</svg>
