<svg width="100%" height="100%" viewBox="0 0 25 25" version="1.1" xmlns="http://www.w3.org/2000/svg" xmlns:xlink="http://www.w3.org/1999/xlink" class="graphic-icon">
    <g transform="matrix(0.0570968,0,0,0.0570968,-13.403,-12.2212)">
        <path d="M464.3,218.5C466.786,218.386 473.286,218.208 475.095,219.574C494.89,234.517 520.373,257.898 538.632,274.228C538.722,267.858 537.575,252.344 541.276,247.006C542.983,244.543 549.656,243.336 552.809,243.157C583.235,241.43 579.227,248.475 579.249,272.948L579.289,311.985C594.173,324.41 633.82,356.967 642.926,371.108C644.626,390.047 636.243,393.722 619.314,393.369C615.62,391.329 614.682,390.623 611.455,387.881C612.046,397.152 611.697,410.06 611.699,419.604L611.733,474.666L611.743,517.635C611.732,552.975 612.795,552.565 583.372,575.73C583.492,586.437 586.471,607.231 570.953,606.713C563.687,606.471 562.051,606.174 556.835,601.033C554.104,592.107 554.121,584.898 553.549,575.588C549.377,575.824 544.513,575.656 540.282,575.613C540.064,584.679 539.524,593.981 533.401,601.274C527.714,608.048 517.726,610.108 510.953,603.443C503.644,596.25 504.377,585.058 504.377,575.604C481.444,576.233 453.467,576.052 430.489,575.514C425.236,641.358 345.626,668.18 296.792,629.917C236.273,582.498 265.06,485.334 341.675,476.799C379.013,475.92 410.908,491.469 426.307,526.597C476.351,528.021 529.273,526.078 579.613,526.774C578.784,509.545 579.313,488.27 579.312,470.826L579.409,365.264C568.442,354.642 553.219,341.927 541.6,331.382L469.415,265.319C464.097,269.732 458.316,275.059 453.283,279.835C422.296,309.241 389.203,337.171 358.383,366.662L358.361,454.911C347.09,454.877 335.095,454.63 323.888,455.142L323.937,410.42C323.93,404.675 323.451,397.111 323.758,391.802C318.913,390.677 316.357,398.133 301.149,392.774C296.005,387.807 291.464,378.961 295.592,373.025C304.193,360.658 322.201,345.947 332.96,336.049L385.905,287.376C397.524,276.735 453.686,223.037 464.3,218.5ZM332.668,587.33C346.532,584.522 355.512,571.025 352.749,557.149C349.986,543.273 336.521,534.247 322.64,536.967C308.696,539.699 299.623,553.241 302.399,567.18C305.174,581.118 318.742,590.15 332.668,587.33Z" fill="var(--theme-elevation-1000)"/>
    </g>
    <g transform="matrix(0.0570968,0,0,0.0570968,-13.403,-12.2212)">
        <path d="M474.874,362.774C487.587,363.391 506.737,361.742 518.684,363.225C518.706,373.56 519.021,389.996 518.503,400.61C517.985,401.363 517.546,401.999 517.188,402.519L475.193,402.417C475.371,389.222 475.077,375.972 474.874,362.774Z" fill="var(--theme-elevation-1000)"/>
    </g>
    <g transform="matrix(0.0570968,0,0,0.0570968,-13.403,-12.2212)">
        <path d="M423.806,362.61C435.891,363.144 450.089,362.846 462.336,362.841L462.315,402.519L454.715,402.429C443.185,402.623 431.214,402.48 419.649,402.497C419.584,396.885 418.68,365.742 420.368,363.258L423.806,362.61Z" fill="var(--theme-elevation-1000)"/>
    </g>
    <g transform="matrix(0.0570968,0,0,0.0570968,-13.403,-12.2212)">
        <path d="M475.227,418.174C487.65,418.963 505.999,418.354 518.711,418.189L518.643,454.851C504.594,454.833 489.082,454.525 475.16,455.113C475.346,442.659 474.848,430.97 475.227,418.174Z" fill="var(--theme-elevation-1000)"/>
    </g>
    <g transform="matrix(0.0570968,0,0,0.0570968,-13.403,-12.2212)">
        <path d="M419.599,418.341C433.852,418.262 448.152,418.21 462.402,418.383C462.414,427.475 462.899,446.824 462.028,454.874C449.661,454.805 431.438,454.267 419.615,455.252L419.599,418.341Z" fill="var(--theme-elevation-1000)"/>
    </g>
</svg>
